<?xml version="1.0" encoding="UTF-8" standalone="no"?>
<!DOCTYPE svg PUBLIC "-//W3C//DTD SVG 1.1//EN"
 "http://www.w3.org/Graphics/SVG/1.1/DTD/svg11.dtd">
<!-- Generated by graphviz version 2.38.0 (20140413.2041)
 -->
<!-- Title: controllers_diagram Pages: 1 -->
<svg width="452pt" height="398pt"
 viewBox="0.00 0.00 451.50 397.50" xmlns="http://www.w3.org/2000/svg" xmlns:xlink="http://www.w3.org/1999/xlink">
<g id="graph0" class="graph" transform="scale(1 1) rotate(0) translate(185.5 212)">
<title>controllers_diagram</title>
<polygon fill="none" stroke="none" points="-185.5,185.5 -185.5,-212 266,-212 266,185.5 -185.5,185.5"/>
<!-- _diagram_info -->
<g id="node1" class="node"><title>_diagram_info</title>
<text text-anchor="start" x="-104" y="-21.6" font-family="Times,serif" font-size="13.00">Controllers diagram</text>
<text text-anchor="start" x="-104" y="-7.6" font-family="Times,serif" font-size="13.00">Date: Nov 20 2017 &#45; 15:38</text>
<text text-anchor="start" x="-104" y="6.4" font-family="Times,serif" font-size="13.00">Migration version: 20171119203821</text>
<text text-anchor="start" x="-104" y="20.4" font-family="Times,serif" font-size="13.00">Generated by RailRoady 1.5.3</text>
<text text-anchor="start" x="-104" y="34.4" font-family="Times,serif" font-size="13.00">http://railroady.prestonlee.com</text>
</g>
<!-- WelcomeController -->
<g id="node2" class="node"><title>WelcomeController</title>
<path fill="none" stroke="black" d="M81.5,-71C81.5,-71 182.5,-71 182.5,-71 188.5,-71 194.5,-77 194.5,-83 194.5,-83 194.5,-167 194.5,-167 194.5,-173 188.5,-179 182.5,-179 182.5,-179 81.5,-179 81.5,-179 75.5,-179 69.5,-173 69.5,-167 69.5,-167 69.5,-83 69.5,-83 69.5,-77 75.5,-71 81.5,-71"/>
<text text-anchor="middle" x="132" y="-163.8" font-family="Times,serif" font-size="14.00">WelcomeController</text>
<polyline fill="none" stroke="black" points="69.5,-156 194.5,-156 "/>
<text text-anchor="start" x="77.5" y="-140.8" font-family="Times,serif" font-size="14.00">index</text>
<polyline fill="none" stroke="black" points="69.5,-133 194.5,-133 "/>
<polyline fill="none" stroke="black" points="69.5,-109 194.5,-109 "/>
<text text-anchor="start" x="77.5" y="-93.8" font-family="Times,serif" font-size="14.00">_layout</text>
<text text-anchor="start" x="77.5" y="-78.8" font-family="Times,serif" font-size="14.00">check_source</text>
</g>
<!-- UsersController -->
<g id="node3" class="node"><title>UsersController</title>
<path fill="none" stroke="black" d="M-169.5,181C-169.5,181 -90.5,181 -90.5,181 -84.5,181 -78.5,175 -78.5,169 -78.5,169 -78.5,85 -78.5,85 -78.5,79 -84.5,73 -90.5,73 -90.5,73 -169.5,73 -169.5,73 -175.5,73 -181.5,79 -181.5,85 -181.5,85 -181.5,169 -181.5,169 -181.5,175 -175.5,181 -169.5,181"/>
<text text-anchor="middle" x="-130" y="88.2" font-family="Times,serif" font-size="14.00">UsersController</text>
<polyline fill="none" stroke="black" points="-181.5,96 -78.5,96 "/>
<text text-anchor="start" x="-173.5" y="111.2" font-family="Times,serif" font-size="14.00">update</text>
<polyline fill="none" stroke="black" points="-181.5,119 -78.5,119 "/>
<polyline fill="none" stroke="black" points="-181.5,143 -78.5,143 "/>
<text text-anchor="start" x="-173.5" y="158.2" font-family="Times,serif" font-size="14.00">_layout</text>
<text text-anchor="start" x="-173.5" y="173.2" font-family="Times,serif" font-size="14.00">sources</text>
</g>
<!-- ApplicationController -->
<g id="node4" class="node"><title>ApplicationController</title>
<path fill="none" stroke="black" d="M138,125C138,125 250,125 250,125 256,125 262,119 262,113 262,113 262,43 262,43 262,37 256,31 250,31 250,31 138,31 138,31 132,31 126,37 126,43 126,43 126,113 126,113 126,119 132,125 138,125"/>
<text text-anchor="middle" x="194" y="46.2" font-family="Times,serif" font-size="14.00">ApplicationController</text>
<polyline fill="none" stroke="black" points="126,54 262,54 "/>
<polyline fill="none" stroke="black" points="126,78 262,78 "/>
<polyline fill="none" stroke="black" points="126,102 262,102 "/>
<text text-anchor="start" x="134" y="117.2" font-family="Times,serif" font-size="14.00">_layout</text>
</g>
<!-- SessionsController -->
<g id="node5" class="node"><title>SessionsController</title>
<path fill="none" stroke="black" d="M-71.5,-84.5C-71.5,-84.5 23.5,-84.5 23.5,-84.5 29.5,-84.5 35.5,-90.5 35.5,-96.5 35.5,-96.5 35.5,-195.5 35.5,-195.5 35.5,-201.5 29.5,-207.5 23.5,-207.5 23.5,-207.5 -71.5,-207.5 -71.5,-207.5 -77.5,-207.5 -83.5,-201.5 -83.5,-195.5 -83.5,-195.5 -83.5,-96.5 -83.5,-96.5 -83.5,-90.5 -77.5,-84.5 -71.5,-84.5"/>
<text text-anchor="middle" x="-24" y="-192.3" font-family="Times,serif" font-size="14.00">SessionsController</text>
<polyline fill="none" stroke="black" points="-83.5,-184.5 35.5,-184.5 "/>
<text text-anchor="start" x="-75.5" y="-169.3" font-family="Times,serif" font-size="14.00">create</text>
<text text-anchor="start" x="-75.5" y="-154.3" font-family="Times,serif" font-size="14.00">destroy</text>
<text text-anchor="start" x="-75.5" y="-139.3" font-family="Times,serif" font-size="14.00">new</text>
<polyline fill="none" stroke="black" points="-83.5,-131.5 35.5,-131.5 "/>
<polyline fill="none" stroke="black" points="-83.5,-107.5 35.5,-107.5 "/>
<text text-anchor="start" x="-75.5" y="-92.3" font-family="Times,serif" font-size="14.00">_layout</text>
</g>
<!-- WeatherController -->
<g id="node6" class="node"><title>WeatherController</title>
<path fill="none" stroke="black" d="M-43.5,167.5C-43.5,167.5 51.5,167.5 51.5,167.5 57.5,167.5 63.5,161.5 63.5,155.5 63.5,155.5 63.5,86.5 63.5,86.5 63.5,80.5 57.5,74.5 51.5,74.5 51.5,74.5 -43.5,74.5 -43.5,74.5 -49.5,74.5 -55.5,80.5 -55.5,86.5 -55.5,86.5 -55.5,155.5 -55.5,155.5 -55.5,161.5 -49.5,167.5 -43.5,167.5"/>
<text text-anchor="middle" x="4" y="89.7" font-family="Times,serif" font-size="14.00">WeatherController</text>
<polyline fill="none" stroke="black" points="-55.5,97.5 63.5,97.5 "/>
<text text-anchor="start" x="-47.5" y="112.7" font-family="Times,serif" font-size="14.00">index</text>
<polyline fill="none" stroke="black" points="-55.5,120.5 63.5,120.5 "/>
<polyline fill="none" stroke="black" points="-55.5,144.5 63.5,144.5 "/>
<text text-anchor="start" x="-47.5" y="159.7" font-family="Times,serif" font-size="14.00">_layout</text>
</g>
</g>
</svg>
