<?xml version="1.0" encoding="UTF-8" standalone="no"?>
<!DOCTYPE svg PUBLIC "-//W3C//DTD SVG 1.1//EN"
 "http://www.w3.org/Graphics/SVG/1.1/DTD/svg11.dtd">
<!-- Generated by graphviz version 2.38.0 (20140413.2041)
 -->
<!-- Title: models_diagram Pages: 1 -->
<svg width="918pt" height="145pt"
 viewBox="0.00 0.00 918.00 145.00" xmlns="http://www.w3.org/2000/svg" xmlns:xlink="http://www.w3.org/1999/xlink">
<g id="graph0" class="graph" transform="scale(1 1) rotate(0) translate(4 141)">
<title>models_diagram</title>
<polygon fill="none" stroke="none" points="-4,4 -4,-141 914,-141 914,4 -4,4"/>
<!-- _diagram_info -->
<g id="node1" class="node"><title>_diagram_info</title>
<text text-anchor="start" x="8" y="-93.1" font-family="Times,serif" font-size="13.00">Models diagram</text>
<text text-anchor="start" x="8" y="-79.1" font-family="Times,serif" font-size="13.00">Date: Nov 20 2017 &#45; 15:37</text>
<text text-anchor="start" x="8" y="-65.1" font-family="Times,serif" font-size="13.00">Migration version: 20171119203821</text>
<text text-anchor="start" x="8" y="-51.1" font-family="Times,serif" font-size="13.00">Generated by RailRoady 1.5.3</text>
<text text-anchor="start" x="8" y="-37.1" font-family="Times,serif" font-size="13.00">http://railroady.prestonlee.com</text>
</g>
<!-- ApplicationRecord -->
<g id="node2" class="node"><title>ApplicationRecord</title>
<ellipse fill="none" stroke="black" cx="309" cy="-68.5" rx="77.1866" ry="18"/>
<text text-anchor="middle" x="309" y="-64.8" font-family="Times,serif" font-size="14.00">ApplicationRecord</text>
</g>
<!-- News -->
<g id="node3" class="node"><title>News</title>
<path fill="none" stroke="black" d="M416,-0.5C416,-0.5 636,-0.5 636,-0.5 642,-0.5 648,-6.5 648,-12.5 648,-12.5 648,-124.5 648,-124.5 648,-130.5 642,-136.5 636,-136.5 636,-136.5 416,-136.5 416,-136.5 410,-136.5 404,-130.5 404,-124.5 404,-124.5 404,-12.5 404,-12.5 404,-6.5 410,-0.5 416,-0.5"/>
<text text-anchor="middle" x="526" y="-121.3" font-family="Times,serif" font-size="14.00">News</text>
<polyline fill="none" stroke="black" points="404,-113.5 648,-113.5 "/>
<text text-anchor="start" x="412" y="-98.3" font-family="Times,serif" font-size="14.00">id :bigint</text>
<text text-anchor="start" x="412" y="-83.3" font-family="Times,serif" font-size="14.00">title :character varying</text>
<text text-anchor="start" x="412" y="-68.3" font-family="Times,serif" font-size="14.00">description :text</text>
<text text-anchor="start" x="412" y="-53.3" font-family="Times,serif" font-size="14.00">link :character varying</text>
<text text-anchor="start" x="412" y="-38.3" font-family="Times,serif" font-size="14.00">source :character varying</text>
<text text-anchor="start" x="412" y="-23.3" font-family="Times,serif" font-size="14.00">created_at :timestamp without time zone</text>
<text text-anchor="start" x="412" y="-8.3" font-family="Times,serif" font-size="14.00">updated_at :timestamp without time zone</text>
</g>
<!-- User -->
<g id="node4" class="node"><title>User</title>
<path fill="none" stroke="black" d="M678,-8C678,-8 898,-8 898,-8 904,-8 910,-14 910,-20 910,-20 910,-117 910,-117 910,-123 904,-129 898,-129 898,-129 678,-129 678,-129 672,-129 666,-123 666,-117 666,-117 666,-20 666,-20 666,-14 672,-8 678,-8"/>
<text text-anchor="middle" x="788" y="-113.8" font-family="Times,serif" font-size="14.00">User</text>
<polyline fill="none" stroke="black" points="666,-106 910,-106 "/>
<text text-anchor="start" x="674" y="-90.8" font-family="Times,serif" font-size="14.00">id :bigint</text>
<text text-anchor="start" x="674" y="-75.8" font-family="Times,serif" font-size="14.00">provider :character varying</text>
<text text-anchor="start" x="674" y="-60.8" font-family="Times,serif" font-size="14.00">uid :character varying</text>
<text text-anchor="start" x="674" y="-45.8" font-family="Times,serif" font-size="14.00">sources :character varying</text>
<text text-anchor="start" x="674" y="-30.8" font-family="Times,serif" font-size="14.00">created_at :timestamp without time zone</text>
<text text-anchor="start" x="674" y="-15.8" font-family="Times,serif" font-size="14.00">updated_at :timestamp without time zone</text>
</g>
</g>
</svg>
